<svg width="17" height="25" viewBox="0 0 17 25" fill="none" xmlns="http://www.w3.org/2000/svg">
<path fill-rule="evenodd" clip-rule="evenodd" d="M5.53215 2.14516V3.79032H5.01602H4.49989V4.95161V6.1129H4.14505H3.79021V7.27419V8.43548H3.3386H2.88699V9.59677V10.7581H2.40312H1.91924V11.9194V13.0806H1.56441H1.20957V14.2419V15.4032H0.66118H0.112793V19.9516V24.5H8.49989H16.887V19.9516V15.4032H16.3709H15.8547V14.2419V13.0806H15.4676H15.0805V11.9194V10.7581H14.6289H14.1773V9.59677V8.43548H13.7257H13.2741V7.27419V6.1129H12.9207H12.5674L12.5498 4.96774L12.5321 3.82258L11.9676 3.80394L11.4031 3.78529V2.14265V0.5H11.0805H10.758V0.854839V1.20968H10.3709H9.98376V0.854839V0.5H9.66118H9.3386V0.854839V1.20968H8.49989H7.66118V0.854839V0.5H7.3386H7.01602V0.854839V1.20968H6.59666H6.17731V0.854839V0.5H5.85473H5.53215V2.14516ZM7.01602 2.62903V3.40323H8.49989H9.98376V2.62903V1.85484H10.3709H10.758V2.82258V3.79032H8.46763H6.17731V2.82258V1.85484H6.59666H7.01602V2.62903ZM9.3386 2.30645V2.75806H8.49989H7.66118V2.30645V1.85484H8.49989H9.3386V2.30645ZM7.51041 4.83871C7.48866 5.02497 7.4515 5.38787 7.42776 5.64516L7.3846 6.1129H6.26479H5.14505V5.30645V4.5H6.3475H7.54989L7.51041 4.83871ZM8.74673 5.16129C8.86486 6.18284 8.88776 6.1129 8.43537 6.1129C7.98615 6.1129 8.01453 6.19665 8.12324 5.19355L8.19834 4.5H8.43428H8.67021L8.74673 5.16129ZM11.9192 5.30787V6.11574L10.7107 6.09819L9.50208 6.08064L9.42389 5.43548C9.38092 5.08065 9.34415 4.72503 9.34215 4.64516L9.3386 4.5H10.6289H11.9192V5.30787ZM7.26795 6.97013C7.2646 7.04865 7.22834 7.40323 7.18731 7.75806L7.11279 8.40323L5.77408 8.42065L4.43537 8.43813L4.43531 7.61419L4.43524 6.79032L5.85466 6.80884C7.27311 6.82735 7.27408 6.82748 7.26795 6.97013ZM12.6289 7.59677V8.43548H11.2108H9.79266L9.76311 8.29032C9.7297 8.12613 9.59666 7.0151 9.59666 6.90006C9.59666 6.84561 10.0095 6.81987 11.0967 6.80639C11.9217 6.79619 12.604 6.78116 12.6128 6.77297C12.6216 6.76477 12.6289 7.13548 12.6289 7.59677ZM9.0246 7.6129L9.11363 8.40323L8.47576 8.42168C8.12499 8.43187 7.82279 8.42503 7.80428 8.40658C7.78583 8.38806 7.80847 8.02413 7.8546 7.59774L7.9386 6.82258H8.43705H8.93557L9.0246 7.6129ZM7.01602 9.15032C7.01602 9.27555 6.88137 10.4641 6.85028 10.6129L6.82002 10.7581H5.17608H3.53215V9.91935V9.08064H5.27408C6.47795 9.08064 7.01602 9.10213 7.01602 9.15032ZM9.24918 9.62903C9.28866 9.9129 9.33589 10.283 9.35415 10.4516L9.38724 10.7581H8.4597H7.53215V10.5467C7.53215 10.3005 7.65118 9.28052 7.69402 9.15916C7.71602 9.09697 7.9037 9.0809 8.45028 9.09464L9.17731 9.1129L9.24918 9.62903ZM13.4911 9.38C13.5427 9.75613 13.5425 10.2028 13.4907 10.5161L13.4507 10.7581H11.7524H10.0541L10.0212 10.5484C9.97079 10.2279 9.85473 9.26471 9.85473 9.16716C9.85473 9.0969 10.1922 9.08064 11.6524 9.08064H13.4501L13.4911 9.38ZM6.75776 11.4516C6.75744 11.5374 6.62718 12.6545 6.59215 12.8719L6.55821 13.0825L4.57744 13.0654L2.59666 13.0484L2.5786 12.2258L2.56053 11.4032H4.65924C5.81357 11.4032 6.75789 11.425 6.75776 11.4516ZM9.52957 12.0645C9.57163 12.4282 9.61118 12.7984 9.6175 12.8871L9.62892 13.0484L8.50215 13.0661C7.88241 13.0759 7.34331 13.0715 7.30408 13.0565C7.25247 13.0366 7.25544 12.8363 7.31486 12.3291C7.36002 11.9441 7.39834 11.5783 7.40002 11.5161C7.40286 11.4135 7.49608 11.4032 8.42815 11.4032H9.45311L9.52957 12.0645ZM14.4354 12.2419V13.0806H12.3709C11.2354 13.0806 10.3063 13.0723 10.3063 13.0621C10.3063 13.0519 10.2631 12.6962 10.2101 12.2717C10.1571 11.8473 10.1136 11.4782 10.1133 11.4516C10.1131 11.425 11.0854 11.4032 12.2741 11.4032H14.4354V12.2419ZM6.47602 13.9677C6.4566 14.1008 6.42383 14.3694 6.40312 14.5645C6.38241 14.7597 6.34963 15.0283 6.33021 15.1613L6.29499 15.4032H4.07486H1.85473V14.5645V13.7258H4.18299H6.51124L6.47602 13.9677ZM9.7257 13.7857C9.7257 13.8417 9.8137 14.5539 9.88776 15.0968L9.92079 15.3387H8.43776H6.95473L6.98428 15.1613C7.01518 14.9759 7.14453 13.8583 7.14486 13.7742C7.14499 13.7475 7.7257 13.7258 8.43537 13.7258C9.1855 13.7258 9.7257 13.7508 9.7257 13.7857ZM15.1954 14.5484L15.1773 15.371L12.8709 15.3879C11.6023 15.3972 10.5644 15.3816 10.5644 15.3532C10.5644 15.3248 10.5211 14.9543 10.4681 14.5298C10.4152 14.1054 10.3716 13.7508 10.3714 13.7419C10.3711 13.7331 11.4604 13.7258 12.7921 13.7258H15.2134L15.1954 14.5484ZM16.2418 19.9516V23.8548H13.9192H11.5967V20.8871V17.9194H11.1451H10.6934V17.371V16.8226H8.53215H6.37086V17.371V17.9194H5.91924H5.46763V20.8871V23.8548H3.11279H0.757954V19.9516V16.0484H8.49989H16.2418V19.9516ZM10.0483 18.0161V18.5645H10.4999H10.9515V21.2097V23.8548H8.53215H6.11279V21.2097V18.5645H6.59666H7.08053V18.0161V17.4677H8.56441H10.0483V18.0161ZM12.3709 20.3065V22.1129H12.6934H13.016V20.3065V18.5H12.6934H12.3709V20.3065ZM14.4354 20.3065V22.1129H14.758H15.0805V20.3065V18.5H14.758H14.4354V20.3065ZM4.17731 20.3312V22.1129H4.49989H4.82247V20.371V18.629L4.64505 18.6281C4.5475 18.6277 4.40234 18.6097 4.32247 18.5884L4.17731 18.5495V20.3312ZM1.93434 20.3548L1.9515 22.0806L2.25795 22.1003L2.56441 22.12V20.3745V18.629H2.24079H1.91712L1.93434 20.3548Z" fill="white"/>
</svg>
