<svg width="32" height="32" viewBox="0 0 32 32" fill="none" xmlns="http://www.w3.org/2000/svg">
<path opacity="0.4" d="M15.96 29.3332C23.3238 29.3332 29.2933 23.3636 29.2933 15.9998C29.2933 8.63604 23.3238 2.6665 15.96 2.6665C8.59618 2.6665 2.62665 8.63604 2.62665 15.9998C2.62665 23.3636 8.59618 29.3332 15.96 29.3332Z" fill="white" fill-opacity="0.5"/>
<path d="M20.8011 17.2266H11.2011C10.2678 17.2266 9.50781 17.9866 9.50781 18.9332C9.50781 22.5199 12.4278 25.4399 16.0145 25.4399C19.6011 25.4399 22.5211 22.5199 22.5211 18.9332C22.5078 17.9999 21.7345 17.2266 20.8011 17.2266Z" fill="white" fill-opacity="0.5"/>
<path d="M14.1859 14.0001C13.9326 14.0001 13.6793 13.9068 13.4793 13.7068C12.5326 12.7601 10.9859 12.7601 10.0393 13.7068C9.6526 14.0934 9.0126 14.0934 8.62594 13.7068C8.23927 13.3201 8.23927 12.6801 8.62594 12.2934C10.3459 10.5734 13.1593 10.5734 14.8926 12.2934C15.2793 12.6801 15.2793 13.3201 14.8926 13.7068C14.6926 13.9068 14.4393 14.0001 14.1859 14.0001Z" fill="white" fill-opacity="0.5"/>
<path d="M20.6655 14.84C22.0499 14.84 23.1722 13.7177 23.1722 12.3333C23.1722 10.9489 22.0499 9.82666 20.6655 9.82666C19.2811 9.82666 18.1589 10.9489 18.1589 12.3333C18.1589 13.7177 19.2811 14.84 20.6655 14.84Z" fill="white" fill-opacity="0.5"/>
</svg>
