<svg width="32" height="32" viewBox="0 0 32 32" fill="none" xmlns="http://www.w3.org/2000/svg">
<path opacity="0.4" d="M27.7733 10.6799L19.04 3.69319C17.3333 2.3332 14.6666 2.31986 12.9733 3.67986L4.23997 10.6799C2.98664 11.6799 2.22664 13.6799 2.4933 15.2532L4.1733 25.3065C4.55997 27.5599 6.6533 29.3332 8.9333 29.3332H23.0666C25.32 29.3332 27.4533 27.5199 27.84 25.2932L29.52 15.2399C29.76 13.6799 29 11.6799 27.7733 10.6799Z" fill="#1849D8"/>
<path d="M16 25C15.4533 25 15 24.5467 15 24V20C15 19.4533 15.4533 19 16 19C16.5467 19 17 19.4533 17 20V24C17 24.5467 16.5467 25 16 25Z" fill="#1849D8"/>
</svg>
