<svg width="32" height="32" viewBox="0 0 32 32" fill="none" xmlns="http://www.w3.org/2000/svg">
<path opacity="0.4" d="M27.7734 10.6799L19.04 3.69319C17.3334 2.3332 14.6667 2.31986 12.9734 3.67986L4.24003 10.6799C2.9867 11.6799 2.2267 13.6799 2.49337 15.2532L4.17337 25.3065C4.56003 27.5599 6.65336 29.3332 8.93336 29.3332H23.0667C25.32 29.3332 27.4534 27.5199 27.84 25.2932L29.52 15.2399C29.76 13.6799 29 11.6799 27.7734 10.6799Z" fill="white" fill-opacity="0.5"/>
<path d="M16 25C15.4533 25 15 24.5467 15 24V20C15 19.4533 15.4533 19 16 19C16.5467 19 17 19.4533 17 20V24C17 24.5467 16.5467 25 16 25Z" fill="white" fill-opacity="0.5"/>
</svg>
