<svg width="32" height="32" viewBox="0 0 32 32" fill="none" xmlns="http://www.w3.org/2000/svg">
<path opacity="0.4" d="M23.3733 10.3598C23.28 10.3465 23.1867 10.3465 23.0933 10.3598C21.0267 10.2932 19.3867 8.59984 19.3867 6.51984C19.3867 4.39984 21.1067 2.6665 23.24 2.6665C25.36 2.6665 27.0933 4.3865 27.0933 6.51984C27.08 8.59984 25.44 10.2932 23.3733 10.3598Z" fill="white" fill-opacity="0.5"/>
<path opacity="0.4" d="M27.72 19.6C26.2266 20.6 24.1333 20.9734 22.2 20.72C22.7066 19.6267 22.9733 18.4134 22.9866 17.1334C22.9866 15.8 22.6933 14.5334 22.1333 13.4267C24.1066 13.1601 26.2 13.5334 27.7066 14.5334C29.8133 15.92 29.8133 18.2 27.72 19.6Z" fill="white" fill-opacity="0.5"/>
<path opacity="0.4" d="M8.5867 10.3598C8.68003 10.3465 8.77337 10.3465 8.8667 10.3598C10.9334 10.2932 12.5734 8.59984 12.5734 6.51984C12.5734 4.39984 10.8534 2.6665 8.72003 2.6665C6.60003 2.6665 4.8667 4.3865 4.8667 6.51984C4.88003 8.59984 6.52003 10.2932 8.5867 10.3598Z" fill="white" fill-opacity="0.5"/>
<path opacity="0.4" d="M8.7333 17.1332C8.7333 18.4265 9.0133 19.6532 9.51997 20.7598C7.63997 20.9598 5.67997 20.5598 4.23997 19.6132C2.13331 18.2132 2.13331 15.9331 4.23997 14.5331C5.66664 13.5731 7.67997 13.1865 9.57331 13.3998C9.02664 14.5198 8.7333 15.7865 8.7333 17.1332Z" fill="white" fill-opacity="0.5"/>
<path d="M16.16 21.16C16.0534 21.1467 15.9334 21.1467 15.8134 21.16C13.36 21.08 11.4 19.0667 11.4 16.5867C11.4 14.0533 13.44 12 15.9867 12C18.52 12 20.5734 14.0533 20.5734 16.5867C20.5734 19.0667 18.6267 21.08 16.16 21.16Z" fill="white" fill-opacity="0.5"/>
<path d="M11.8267 23.92C9.81332 25.2667 9.81332 27.48 11.8267 28.8134C14.12 30.3467 17.88 30.3467 20.1733 28.8134C22.1867 27.4667 22.1867 25.2534 20.1733 23.92C17.8933 22.3867 14.1333 22.3867 11.8267 23.92Z" fill="white" fill-opacity="0.5"/>
</svg>
