<svg width="12" height="25" viewBox="0 0 12 25" fill="none" xmlns="http://www.w3.org/2000/svg">
<path fill-rule="evenodd" clip-rule="evenodd" d="M5.14285 1.19135C4.25824 2.07597 4.26617 2.01921 4.93314 2.69702L5.41474 3.18645L4.67214 3.77871L3.9295 4.37097H3.22276H2.51601V4.75806V5.14516H2.90311H3.29021V6.30645V7.46774H3.0219C2.8015 7.46774 2.7323 7.48898 2.6348 7.58653C2.51897 7.70232 2.51601 7.72381 2.51601 8.45014V9.19497L1.39963 9.93781C0.785642 10.3463 0.263062 10.7184 0.238336 10.7645C0.15961 10.9117 0.189756 11.0975 0.312223 11.2199C0.426611 11.3344 0.455014 11.3387 1.08642 11.3387H1.74182V17.8006V24.2625L1.86061 24.3812L1.97935 24.5H5.99988H10.0204L10.1392 24.3812L10.2579 24.2625V17.8006V11.3387H10.9134C11.5448 11.3387 11.5732 11.3344 11.6875 11.2199C11.81 11.0975 11.8402 10.9117 11.7614 10.7645C11.7367 10.7184 11.2141 10.3463 10.6001 9.93781L9.48376 9.19497V8.45014C9.48376 7.72381 9.4808 7.70232 9.36497 7.58653C9.26747 7.48898 9.19827 7.46774 8.97787 7.46774H8.70956V6.30645V5.14516H9.09666H9.48376V4.75806V4.37097H8.77701H8.07027L7.32763 3.77871L6.58503 3.18645L7.06663 2.69702C7.73359 2.01921 7.74153 2.07597 6.85692 1.19135C6.23659 0.571032 6.14853 0.5 5.99988 0.5C5.85124 0.5 5.76317 0.571032 5.14285 1.19135ZM6.31493 1.7586L6.60274 2.0494L6.30129 2.35085L5.99988 2.65226L5.69848 2.35085L5.39703 2.0494L5.68484 1.7586C5.84316 1.59863 5.98493 1.46774 5.99988 1.46774C6.01484 1.46774 6.15661 1.59863 6.31493 1.7586ZM6.44258 4.05645L6.83214 4.37097H6.00003H5.16797L5.54766 4.05931C5.75645 3.88787 5.95561 3.74634 5.99016 3.74479C6.02476 3.74324 6.22832 3.88347 6.44258 4.05645ZM4.83859 6.30645V7.46774H4.4515H4.0644V6.30645V5.14516H4.4515H4.83859V6.30645ZM6.38698 6.30645V7.46774H5.99988H5.61279V6.30645V5.14516H5.99988H6.38698V6.30645ZM7.93537 6.30645V7.46774H7.54827H7.16117V6.30645V5.14516H7.54827H7.93537V6.30645ZM8.70956 8.62903V9.01613H5.99988H3.29021V8.62903V8.24194H5.99988H8.70956V8.62903ZM9.55634 10.1774L10.137 10.5644H5.99988H1.86279L2.44343 10.1774L3.02408 9.79047H5.99988H8.97569L9.55634 10.1774ZM9.48376 17.5323V23.7258H8.70956H7.93537V21.5177C7.93537 19.9255 7.91896 19.2541 7.87653 19.1105C7.798 18.8447 7.39716 18.4438 7.13137 18.3653C6.76808 18.258 6.42385 18.3081 6.13295 18.5107C6.00187 18.602 5.9979 18.602 5.86682 18.5107C5.57592 18.3081 5.23169 18.258 4.8684 18.3653C4.60261 18.4438 4.20177 18.8447 4.12324 19.1105C4.0808 19.2541 4.0644 19.9255 4.0644 21.5177V23.7258H3.29021H2.51601V17.5323V11.3387H5.99988H9.48376V17.5323ZM4.4515 12.8871V13.6613H4.83859H5.22569V12.8871V12.1129H4.83859H4.4515V12.8871ZM6.77408 12.8871V13.6613H7.16117H7.54827V12.8871V12.1129H7.16117H6.77408V12.8871ZM5.494 19.1994L5.61279 19.3182V20.7478V22.1774H5.22569H4.83859V20.7478V19.3182L4.95738 19.1994C5.03224 19.1245 5.13143 19.0806 5.22569 19.0806C5.31995 19.0806 5.41914 19.1245 5.494 19.1994ZM7.04239 19.1994L7.16117 19.3182V20.7478V22.1774H6.77408H6.38698V20.7478V19.3182L6.50577 19.1994C6.58063 19.1245 6.67982 19.0806 6.77408 19.0806C6.86834 19.0806 6.96753 19.1245 7.04239 19.1994ZM5.61279 23.3387V23.7258H5.22569H4.83859V23.3387V22.9516H5.22569H5.61279V23.3387ZM7.16117 23.3387V23.7258H6.77408H6.38698V23.3387V22.9516H6.77408H7.16117V23.3387Z" fill="white"/>
</svg>
